<svg xmlns="http://www.w3.org/2000/svg" viewBox="0 0 1024 1024" fill="none">
  <rect width="1024" height="1024" rx="220" fill="#F7F2EA"/>
  <ellipse cx="524" cy="815" rx="230" ry="42" fill="#5A4A36" opacity=".10"/>
  <path d="M318 214c0-44 36-80 80-80h310c44 0 80 36 80 80v466c0 44-36 80-80 80H398c-44 0-80-36-80-80V214Z" fill="#E8DCC9"/>
  <path d="M396 134h312c44 0 80 36 80 80v466c0 44-36 80-80 80H396c-44 0-80-36-80-80V214c0-44 36-80 80-80Z" fill="#FFF7ED"/>
  <path d="M316 214c0-44 36-80 80-80h64v626h-64c-44 0-80-36-80-80V214Z" fill="#E8DCC9"/>
  <path d="M460 134v626" stroke="#D7C5AB" stroke-width="10"/>
  <path d="M394 760h78v150l-39-35-39 35V760Z" fill="#7BA67A"/>
  <circle cx="568" cy="421" r="140" fill="#FFF7ED" stroke="#D9BE96" stroke-width="14"/>
  <path d="M555 317c13-28 29-48 52-62" stroke="#5A4A36" stroke-width="18" stroke-linecap="round"/>
  <path d="M612 296c58-10 96 20 118 69-58 14-100-6-131-56 4-5 8-9 13-13Z" fill="#7BA67A"/>
  <path d="M480 426c0-62 39-108 91-108s93 46 93 108c0 66-39 118-93 118s-91-52-91-118Z" fill="#E06A6A"/>
  <path d="M493 373c17 8 29 4 41-9 18 14 32 13 49 0 18 14 32 13 49 4 9 16 18 27 35 36-14 17-13 31 0 48-16 10-27 22-26 42-21-3-34 4-45 24-18-12-36-12-54 0-10-20-24-29-45-25 4-22-1-36-19-49 17-17 22-35 15-71Z" fill="#E06A6A"/>
  <path d="M508 384c17 9 32 4 45-9m40 0c14 9 28 12 45 5M508 448c18 9 35 9 52 0m45 4c13 8 28 8 41 0" stroke="#D85C5C" stroke-width="7" stroke-linecap="round" opacity=".45"/>
</svg>
