<svg width="800px" height="800px" viewBox="0 0 24 24" fill="none" xmlns="http://www.w3.org/2000/svg">
  <!-- 晨光背景弧线组 -->
  <path d="M2 18c3-5 7-8 10-8s7 3 10 8" stroke="#A26B59" stroke-width="1" stroke-linecap="round" opacity="0.15"/>
  <path d="M4 17c2.5-4 5.5-6.5 8-6.5s5.5 2.5 8 6.5" stroke="#A26B59" stroke-width="1" stroke-linecap="round" opacity="0.2"/>
  <path d="M6 16c2-3 4-5 6-5s4 2 6 5" stroke="#A26B59" stroke-width="1" stroke-linecap="round" opacity="0.25"/>
  
  <!-- 土壤底盘 -->
  <ellipse cx="12" cy="19" rx="7" ry="1.8" stroke="#3E2B1E" stroke-width="2" stroke-linecap="round"/>
  
  <!-- 种子壳（裂开） -->
  <path d="M9 17c0 0 1-2 3-2s3 2 3 2" stroke="#3E2B1E" stroke-width="2" stroke-linecap="round"/>
  <path d="M9 17c0 0 0.5 1.5 1.5 2" stroke="#3E2B1E" stroke-width="1.5" stroke-linecap="round"/>
  <path d="M15 17c0 0-0.5 1.5-1.5 2" stroke="#3E2B1E" stroke-width="1.5" stroke-linecap="round"/>
  
  <!-- 嫩芽突破 -->
  <path d="M12 15v-3" stroke="#3E2B1E" stroke-width="2" stroke-linecap="round"/>
  <path d="M12 14c0 0-1.8-1.5-2.5-1" stroke="#3E2B1E" stroke-width="2" stroke-linecap="round"/>
  <path d="M12 13c0 0 1.8-1.5 2.5-1" stroke="#3E2B1E" stroke-width="2" stroke-linecap="round"/>
  <ellipse cx="9.5" cy="12.5" rx="1.2" ry="0.9" stroke="#3E2B1E" stroke-width="1.5" transform="rotate(-25 9.5 12.5)"/>
  <ellipse cx="14.5" cy="11.5" rx="1.2" ry="0.9" stroke="#3E2B1E" stroke-width="1.5" transform="rotate(25 14.5 11.5)"/>
  
  <!-- 顶部新芽 -->
  <path d="M12 12l0.5-2.5" stroke="#3E2B1E" stroke-width="1.8" stroke-linecap="round"/>
  <ellipse cx="12.5" cy="9" rx="1.3" ry="0.9" stroke="#3E2B1E" stroke-width="1.5" transform="rotate(-10 12.5 9)"/>
</svg>
