<svg width="100%" height="100%" viewBox="0 0 24 24" fill="none" xmlns="http://www.w3.org/2000/svg">
  <!-- 荔枝果实主体 -->
  <circle cx="12" cy="13" r="6" stroke="currentColor" stroke-width="2" stroke-linecap="round" stroke-linejoin="round"/>
  
  <!-- 果皮纹理弧线 -->
  <path d="M9 11c1 1.5 3 2 6 0.5" stroke="currentColor" stroke-width="1.5" stroke-linecap="round"/>
  <path d="M8.5 13.5c1.5 1.2 4 1 5.5 0" stroke="currentColor" stroke-width="1.5" stroke-linecap="round"/>
  <path d="M9 15.5c1 0.8 3 0.6 4.5 0" stroke="currentColor" stroke-width="1.5" stroke-linecap="round"/>
  
  <!-- 叶茎 -->
  <path d="M14 8c0 0 1-3-0.5-4.5" stroke="currentColor" stroke-width="2" stroke-linecap="round"/>
  
  <!-- 叶片 -->
  <path d="M13.5 3.5c-1.5 0-3 1.5-3 3.5 0 1 0.5 1.5 1 2 1-1 2-2 3-2 0.5 0 1-0.5 1-1s-0.5-1-1-1c-0.5 0-1 1-1 1" stroke="currentColor" stroke-width="2" stroke-linecap="round" stroke-linejoin="round"/>
</svg>
