<svg width="800px" height="800px" viewBox="0 0 24 24" fill="none" xmlns="http://www.w3.org/2000/svg">
  <!-- 土壤底盘 -->
  <ellipse cx="12" cy="19" rx="6" ry="1.5" stroke="#000000" stroke-width="1.5" stroke-linecap="round"/>
  <!-- 小植物茎干 -->
  <path d="M12 19c0 0 0-4 0-6" stroke="#000000" stroke-width="2" stroke-linecap="round"/>
  <!-- 左叶片 -->
  <path d="M12 15c0 0-2-1.5-3-1" stroke="#000000" stroke-width="2" stroke-linecap="round"/>
  <!-- 右叶片 -->
  <path d="M12 14c0 0 2-1.5 3-1" stroke="#000000" stroke-width="2" stroke-linecap="round"/>
  <!-- 新芽 -->
  <path d="M12 13l0.5-2" stroke="#000000" stroke-width="1.5" stroke-linecap="round"/>
  <ellipse cx="12.5" cy="10.5" rx="1" ry="0.7" stroke="#000000" stroke-width="1.2" transform="rotate(-15 12.5 10.5)"/>
  <!-- 水滴上方 -->
  <path d="M17 8c0 0-0.5-1.5-1-2" stroke="#000000" stroke-width="1.5" stroke-linecap="round"/>
  <path d="M16 6.5c0 0 0.3-1.5 1-2" stroke="#000000" stroke-width="1" stroke-linecap="round" opacity="0.5"/>
  <!-- 云朵 -->
  <path d="M15 4c-1 0-2 0.5-2 1.5 0 0 1.5 0.5 2 0.5s2.5 0.5 3 0c0.5-1-0.5-2-1.5-2s-1.5 0-1.5 0z" stroke="#000000" stroke-width="1.2" stroke-linecap="round" opacity="0.5"/>
</svg>
