<svg width="800px" height="800px" viewBox="0 0 24 24" fill="none" xmlns="http://www.w3.org/2000/svg">
  <!-- 土壤弧线 -->
  <path d="M6 18c0 0 2.5-2 6-2s6 2 6 2" stroke="#000000" stroke-width="2" stroke-linecap="round"/>
  <!-- 种子主体 -->
  <ellipse cx="12" cy="14.5" rx="3" ry="2" stroke="#000000" stroke-width="2"/>
  <!-- 种子内核裂开线 -->
  <path d="M11 14.5c0 0 0.5 1.5 2 1.5" stroke="#000000" stroke-width="2" stroke-linecap="round"/>
  <!-- 根系 -->
  <path d="M12 16.5v2.5" stroke="#000000" stroke-width="2" stroke-linecap="round"/>
  <path d="M12 18l-1.5 0.8" stroke="#000000" stroke-width="2" stroke-linecap="round"/>
  <path d="M12 18l1.5 0.8" stroke="#000000" stroke-width="2" stroke-linecap="round"/>
  <!-- 晨光弧线 -->
  <path d="M8 11c1.3-2 2.7-3 4-3s2.7 1 4 3" stroke="#000000" stroke-width="1.5" stroke-linecap="round" opacity="0.6"/>
  <path d="M5 9c2-3 4.7-4.5 7-4.5s5 1.5 7 4.5" stroke="#000000" stroke-width="1" stroke-linecap="round" opacity="0.3"/>
</svg>
