<!-- Project-derived from Lucide images v1.47.0, ISC; see docs/THIRD_PARTY_NOTICES.md. -->
<svg xmlns="http://www.w3.org/2000/svg" width="24" height="24" viewBox="0 0 24 24" fill="currentColor" stroke="none">
  <path d="M4 8a2 2 0 0 0-2 2v10a2 2 0 0 0 2 2h10a2 2 0 0 0 2-2" fill="none" stroke="currentColor" stroke-width="2" stroke-linecap="round" stroke-linejoin="round" />
  <path fill-rule="evenodd" d="M10 1h10a3 3 0 0 1 3 3v10a3 3 0 0 1-3 3H10a3 3 0 0 1-3-3V4a3 3 0 0 1 3-3Zm5 6a2 2 0 1 0-4 0 2 2 0 0 0 4 0Zm5.1 3.4a1.4 1.4 0 0 0-2 0L12.5 16h2.8l4.8-4.8L22 13v-2l-1.9-.6Z" />
</svg>
